<svg width="148" height="32" viewBox="0 0 148 32" fill="none" xmlns="http://www.w3.org/2000/svg">
<path d="M20.7 27.7468H0V32H20.7V27.7468Z" fill="black"/>
<path d="M24.8002 27.7468H20.7002V32H24.8002V27.7468Z" fill="#51585A"/>
<path d="M33.1 10.9368H29V31.8988H33.1V10.9368Z" fill="black"/>
<path fill-rule="evenodd" clip-rule="evenodd" d="M53.8998 10.9366V15.1898H41.4998V27.7467H53.8998V31.9999H37.2998V2.63281H41.4998V11.0379C45.5998 10.9366 49.6998 10.9366 53.8998 10.9366Z" fill="black"/>
<path d="M58.0999 27.7468H53.8999V32H58.0999V27.7468Z" fill="#51585A"/>
<path d="M66.4002 27.7468H62.2002V32H66.4002V27.7468Z" fill="#51585A"/>
<path d="M82.9999 27.7468H66.3999V32H82.9999V27.7468Z" fill="black"/>
<path fill-rule="evenodd" clip-rule="evenodd" d="M103.7 10.9368V15.1899H91.2001V19.3418H103.7V23.595V27.7469H99.5001V23.595H91.2001V32.0001H87.1001V10.9368C92.6001 10.9368 98.1001 10.9368 103.7 10.9368Z" fill="black"/>
<path d="M107.8 27.7468H103.7V32H107.8V27.7468Z" fill="black"/>
<path d="M128.6 27.7468H112V32H128.6V27.7468Z" fill="black"/>
<path d="M132.7 27.7468H128.5V32H132.7V27.7468Z" fill="#51585A"/>
<path d="M24.8002 19.3418H20.7002V27.7469H24.8002V19.3418Z" fill="black"/>
<path d="M58.0999 15.1899H53.8999V27.7469H58.0999V15.1899Z" fill="black"/>
<path fill-rule="evenodd" clip-rule="evenodd" d="M62.2002 27.7469V15.1899H66.4002V19.3418H78.8002V15.1899H82.9002V23.595H66.4002V27.7469H62.2002Z" fill="black"/>
<path d="M132.7 23.595H128.5V27.7469H132.7V23.595Z" fill="black"/>
<path d="M107.8 19.3418H103.7V23.595H107.8V19.3418Z" fill="#51585A"/>
<path d="M116.2 19.3418H112V23.595H116.2V19.3418Z" fill="#51585A"/>
<path d="M128.5 19.3418H116.1V23.595H128.5V19.3418Z" fill="black"/>
<path d="M132.7 19.3418H128.5V23.595H132.7V19.3418Z" fill="#51585A"/>
<path d="M4.2 15.1899H0V19.3418H4.2V15.1899Z" fill="#51585A"/>
<path d="M20.8002 15.1899H4.2002V19.3418H20.8002V15.1899Z" fill="black"/>
<path d="M24.8002 15.1899H20.7002V19.3418H24.8002V15.1899Z" fill="#51585A"/>
<path d="M107.8 15.1899H103.7V19.3418H107.8V15.1899Z" fill="black"/>
<path d="M116.2 15.1899H112V19.3418H116.2V15.1899Z" fill="black"/>
<path d="M4.2 10.9368H0V15.1899H4.2V10.9368Z" fill="black"/>
<path d="M58.0999 10.9368H53.8999V15.1899H58.0999V10.9368Z" fill="#51585A"/>
<path d="M66.4002 10.9368H62.2002V15.1899H66.4002V10.9368Z" fill="#51585A"/>
<path d="M78.7999 10.9368H66.3999V15.1899H78.7999V10.9368Z" fill="black"/>
<path d="M82.8998 10.9368H78.7998V15.1899H82.8998V10.9368Z" fill="#51585A"/>
<path d="M107.8 10.9368H103.7V15.1899H107.8V10.9368Z" fill="#51585A"/>
<path d="M116.2 10.9368H112V15.1899H116.2V10.9368Z" fill="#51585A"/>
<path d="M124.4 10.9368H116.1V15.1899H124.4V10.9368Z" fill="black"/>
<path d="M132.7 10.9368H128.5V15.1899H132.7V10.9368Z" fill="#0D92CB"/>
<path d="M4.2 6.78467H0V10.9366H4.2V6.78467Z" fill="#51585A"/>
<path d="M24.9002 6.78467H4.2002V10.9366H24.9002V6.78467Z" fill="black"/>
<path d="M33.1 2.53174H29V6.7849H33.1V2.53174Z" fill="#E94381"/>
<path d="M142.6 0C144.1 0 145.4 0.506329 146.4 1.62025C147.5 2.73418 148 4.05063 148 5.46835C148 6.98734 147.5 8.3038 146.4 9.31645C145.3 10.4304 144 10.9367 142.6 10.9367V10.1266C143.9 10.1266 144.9 9.72152 145.8 8.81013C146.7 7.89873 147.1 6.78481 147.1 5.56962C147.1 4.25316 146.7 3.24051 145.8 2.32911C144.9 1.41772 143.8 1.01266 142.6 1.01266V0ZM142.6 5.87342L144.3 8.81013H145.3L143.5 5.77215C144.4 5.46835 144.8 4.75949 144.8 3.94937C144.8 2.73418 144.1 2.12658 142.6 2.02532V2.83544C143.4 2.93671 143.8 3.24051 143.8 3.94937C143.8 4.35443 143.7 4.65823 143.5 4.86076C143.3 5.06329 143 5.06329 142.6 5.16456V5.87342ZM137.1 5.46835C137.1 3.94937 137.6 2.63291 138.7 1.62025C139.8 0.506329 141 0 142.5 0V0.911392C141.2 0.911392 140.2 1.31646 139.3 2.22785C138.4 3.13924 138 4.25316 138 5.46835C138 6.78481 138.4 7.79747 139.3 8.70886C140.2 9.62025 141.3 10.0253 142.5 10.0253V10.9367C141 10.9367 139.7 10.4304 138.7 9.31645C137.7 8.3038 137.1 6.98734 137.1 5.46835ZM142.6 2.02532H142.4H140.7V8.81013H141.7V5.87342H142.7V5.16456H142.4C142.1 5.16456 141.8 5.16456 141.8 5.16456V2.83544H142.2H142.6H142.8V2.02532H142.6Z" fill="#221F1F"/>
</svg>
